Coordinates
version=1
nRows=29
nColumns=24
inDegrees=yes

Units are S.I. units (second, meters, Newtons, ...)
Angles are in degrees.

endheader
time	pelvis_tilt	pelvis_list	pelvis_rotation	pelvis_tx	pelvis_ty	pelvis_tz	hip_flexion_r	hip_adduction_r	hip_rotation_r	knee_angle_r	ankle_angle_r	subtalar_angle_r	mtp_angle_r	hip_flexion_l	hip_adduction_l	hip_rotation_l	knee_angle_l	ankle_angle_l	subtalar_angle_l	mtp_angle_l	lumbar_extension	lumbar_bending	lumbar_rotation
      0.79566667	     -1.10679975	     -0.54329390	      1.72422660	     -0.47292496	      0.99835802	      0.34543076	     10.51395691	      5.25315952	     -3.79934165	    -13.45109312	      7.07135729	     -5.66007589	      3.05292442	     20.41244339	     -0.86746644	      2.23432505	    -68.02087484	     -6.85110458	     -9.40976041	      5.66369036	      2.58526272	      3.25242750	      3.08659624
      0.79983333	     -1.10044766	     -0.48378064	      1.59057655	     -0.46798509	      0.99896307	      0.34571869	     10.02983237	      5.22743030	     -3.69064547	    -13.14659523	      7.21732514	     -5.54732965	      3.06327516	     20.95945671	     -0.76595846	      2.23623614	    -67.77733758	     -6.22680768	     -9.67175880	      5.61550877	      2.53894732	      3.21466949	      3.11030253
      0.80400000	     -1.03297065	     -0.39514065	      1.46003989	     -0.46304827	      0.99960861	      0.34597585	      9.51288141	      5.15140776	     -3.70647237	    -12.91758369	      7.44265644	     -5.20104999	      3.29354488	     21.42038452	     -0.63372060	      2.22895281	    -67.48251203	     -5.54289832	     -9.83318098	      3.14325275	      2.39062715	      3.11999612	      3.34166112
      0.80816667	     -1.05826317	     -0.32089716	      1.33747121	     -0.45813578	      1.00010893	      0.34625601	      9.06406285	      5.10386630	     -3.60688458	    -12.60701739	      7.51679098	     -5.10286375	      3.29744172	     21.97763257	     -0.51425303	      2.23708268	    -67.13697675	     -4.99392490	    -10.05080843	      3.14263734	      2.37931527	      3.02700863	      3.38464206
      0.81233333	     -0.99930622	     -0.25150256	      1.16077763	     -0.45323047	      1.00065480	      0.34659094	      8.54036552	      5.06447319	     -3.49147703	    -12.32787697	      7.60935854	     -4.92508013	      3.30558214	     22.41995281	     -0.43607046	      2.17357658	    -66.75006112	     -4.36196638	    -10.17019325	      3.11226316	      2.23502876	      2.98165799	      3.62624352
      0.81650000	     -1.03370123	     -0.17780175	      1.02920072	     -0.44834503	      1.00104849	      0.34685069	      8.12085199	      5.01013435	     -3.41160273	    -12.05662796	      7.73147046	     -4.81485228	      3.31051209	     22.96125023	     -0.31980609	      2.17238236	    -66.31795155	     -3.85179080	    -10.35389099	      3.10859049	      2.23109181	      2.90113226	      3.68476061
      0.82066667	     -0.96752044	     -0.09777610	      0.82430557	     -0.44346711	      1.00153455	      0.34720066	      7.61189394	      4.95215563	     -3.30095763	    -11.82183716	      7.86474152	     -4.59033539	      3.31853334	     23.36260023	     -0.24787881	      2.06728604	    -65.83223189	     -3.26199925	    -10.45001159	      3.08104366	      2.07904306	      2.83719977	      3.91175889
      0.82483333	     -0.93517659	     -0.02285070	      0.67343819	     -0.43859628	      1.00192848	      0.34746526	      7.12598393	      4.88983225	     -3.23980398	    -11.55581799	      8.00124060	     -4.33766799	      3.32732630	     23.79798053	     -0.14811291	      2.03813751	    -65.30729518	     -2.76974820	    -10.51850589	      3.02814303	      1.96865127	      2.76791989	      4.16479629
      0.82900000	     -0.95883035	      0.04613908	      0.49435390	     -0.43374595	      1.00219328	      0.34775997	      6.72220092	      4.83455024	     -3.14798366	    -11.33236709	      8.12974162	     -4.15203956	      3.33488545	     24.28220221	     -0.07242842	      1.96897151	    -64.74720554	     -2.29183083	    -10.61566630	      2.99199759	      1.94021296	      2.70795563	      4.28912730
      0.83316667	     -0.91987064	      0.10397372	      0.33437613	     -0.42888788	      1.00251416	      0.34803665	      6.23180886	      4.78835404	     -3.07791664	    -11.06625290	      8.26447351	     -3.91997037	      3.34362652	     24.68380033	     -0.00684027	      1.91957045	    -64.14182503	     -1.85031825	    -10.64746100	      2.93268944	      1.82248838	      2.64908322	      4.49210941
      0.83733333	     -0.92032478	      0.17668016	      0.15592097	     -0.42404085	      1.00274304	      0.34831578	      5.80158270	      4.72245453	     -3.00084241	    -10.83571163	      8.40046064	     -3.69722991	      3.35327727	     25.10936716	      0.06748781	      1.84493913	    -63.48806279	     -1.44101692	    -10.69179685	      2.86861868	      1.75970143	      2.57757862	      4.65911094
      0.84150000	     -0.90534861	      0.22970104	     -0.02676386	     -0.41920799	      1.00294489	      0.34858594	      5.35327521	      4.67727071	     -2.89826544	    -10.59822994	      8.51913538	     -3.50426191	      3.36196242	     25.50442471	      0.11780619	      1.77177693	    -62.79825779	     -1.04709803	    -10.72901731	      2.82481553	      1.67678008	      2.54429703	      4.77287360
      0.84566667	     -0.90453707	      0.27236941	     -0.19963713	     -0.41437571	      1.00308111	      0.34885066	      4.91699410	      4.64087905	     -2.80944952	    -10.35193756	      8.64427932	     -3.30290492	      3.37117479	     25.90534959	      0.15439874	      1.70301323	    -62.07699503	     -0.69199097	    -10.72830823	      2.77399058	      1.60584043	      2.50773117	      4.92236436
      0.84983333	     -0.89446841	      0.33269870	     -0.37468439	     -0.40952618	      1.00321263	      0.34910431	      4.47203346	      4.58117102	     -2.72550941	    -10.10999881	      8.76838764	     -3.09422552	      3.38150798	     26.27032795	      0.20936457	      1.62749652	    -61.29752614	     -0.37758455	    -10.72495434	      2.72006842	      1.52891706	      2.45280000	      5.06622406
      0.85400000	     -0.87581038	      0.37839759	     -0.54374352	     -0.40468912	      1.00330294	      0.34934693	      4.01814051	      4.53458613	     -2.65181504	     -9.86446558	      8.89410295	     -2.87786086	      3.39352000	     26.61532336	      0.24576026	      1.55254009	    -60.48755680	     -0.09004714	    -10.70975270	      2.66119078	      1.44025749	      2.41177948	      5.20940084
      0.85816667	     -0.86191569	      0.40548681	     -0.70409876	     -0.39984832	      1.00333754	      0.34957508	      3.56645611	      4.50567579	     -2.58136561	     -9.61250483	      9.01381083	     -2.66868063	      3.40668248	     26.95301248	      0.26276629	      1.48777185	    -59.64829463	      0.17425506	    -10.68243509	      2.59910473	      1.35626479	      2.39223962	      5.34000494
      0.86233333	     -0.83647841	      0.43019791	     -0.85480241	     -0.39498408	      1.00336194	      0.34979668	      3.09550918	      4.47682289	     -2.53327764	     -9.34820129	      9.13081382	     -2.46145625	      3.42327897	     27.25947310	      0.27533733	      1.42123065	    -58.76816815	      0.40143064	    -10.64514363	      2.51759272	      1.26478968	      2.36421129	      5.48279146
      0.86650000	     -0.82751386	      0.46512224	     -1.02132022	     -0.39015317	      1.00333076	      0.35000718	      2.65709443	      4.43458932	     -2.44118863	     -9.10980120	      9.24583669	     -2.26620171	      3.43907552	     27.56175928	      0.29852087	      1.34749523	    -57.84014787	      0.60749159	    -10.61081782	      2.45294090	      1.18135646	      2.34198062	      5.57857824
      0.87066667	     -0.80700664	      0.47995409	     -1.16698567	     -0.38529938	      1.00326778	      0.35020052	      2.19535493	      4.41208963	     -2.38090996	     -8.85096356	      9.35961734	     -2.07153708	      3.45764279	     27.83981424	      0.30168766	      1.28477693	    -56.88680803	      0.79154488	    -10.56570290	      2.37901322	      1.09336488	      2.33279903	      5.68803489
      0.87483333	     -0.80135522	      0.49656572	     -1.31113382	     -0.38044792	      1.00315576	      0.35038289	      1.74977538	      4.38595291	     -2.30561670	     -8.59097251	      9.47111703	     -1.88979065	      3.47518818	     28.11556077	      0.30473461	      1.21754082	    -55.89484446	      0.95221860	    -10.51811112	      2.31581065	      1.00917941	      2.32482651	      5.77221819
      0.87900000	     -0.76187764	      0.51155653	     -1.43669833	     -0.37555855	      1.00305763	      0.35054524	      1.26301087	      4.35666753	     -2.29026187	     -8.32515457	      9.58202369	     -1.68689000	      3.50248050	     28.33202283	      0.31078139	      1.15566723	    -54.86008420	      1.09158329	    -10.47738879	      2.21361124	      0.90956670	      2.30734906	      5.89323222
      0.88316667	     -0.74990322	      0.51577545	     -1.56603918	     -0.37069513	      1.00287230	      0.35069996	      0.81414280	      4.33932274	     -2.24227282	     -8.07319236	      9.69478592	     -1.49423816	      3.53232685	     28.56581230	      0.30233473	      1.09148366	    -53.79899146	      1.21854345	    -10.42780316	      2.11061441	      0.83019735	      2.30899635	      5.97349968
      0.88733333	     -0.75276367	      0.52201613	     -1.70741733	     -0.36584132	      1.00264650	      0.35086746	      0.38950735	      4.31968305	     -2.15879251	     -7.83667662	      9.80496931	     -1.32736516	      3.55442233	     28.79150794	      0.28921852	      1.01489499	    -52.69319155	      1.32710542	    -10.37596932	      2.04524990	      0.76397466	      2.30876135	      6.01838614
      0.89150000	     -0.74472091	      0.51463524	     -1.82516828	     -0.36097009	      1.00238639	      0.35100891	     -0.05883623	      4.31446027	     -2.10121481	     -7.57829052	      9.91764551	     -1.16821079	      3.57703440	     28.99385052	      0.26713056	      0.94822554	    -51.56471029	      1.42702534	    -10.32652820	      1.97956000	      0.68596394	      2.32069687	      6.07807779
      0.89566667	     -0.80103324	      0.48710619	     -1.91219342	     -0.35609213	      1.00198135	      0.35111215	     -0.43826318	      4.33353386	     -2.06298364	     -7.32073173	     10.04485424	     -1.04309436	      3.58999124	     29.25827398	      0.23646239	      0.91710969	    -50.42190442	      1.51965036	    -10.27825081	      1.95103335	      0.70664016	      2.34851773	      6.10446433
      0.89983333	     -0.73681005	      0.48605067	     -2.04812892	     -0.35120653	      1.00173650	      0.35127455	     -0.93362832	      4.31481519	     -2.00281659	     -7.09110835	     10.14225034	     -0.87233078	      3.61445668	     29.34806462	      0.20461019	      0.80466568	    -49.20598295	      1.59343506	    -10.24178236	      1.88280564	      0.55098617	      2.34768813	      6.17074962
      0.90400000	     -0.73015964	      0.47230636	     -2.14492960	     -0.34630342	      1.00136827	      0.35138212	     -1.37748698	      4.31308122	     -1.96646853	     -6.84176167	     10.25680205	     -0.72036797	      3.64088002	     29.49237728	      0.17706904	      0.72829444	    -47.97474270	      1.66459517	    -10.21053385	      1.81205370	      0.47833696	      2.36282493	      6.22308515
      0.90816667	     -0.73365644	      0.46000985	     -2.24012861	     -0.34139219	      1.00094723	      0.35148034	     -1.80252938	      4.30806180	     -1.93178846	     -6.60999005	     10.37571638	     -0.57595416	      3.66748398	     29.62711385	      0.14963180	      0.64613041	    -46.70988076	      1.72326469	    -10.18649182	      1.74404398	      0.41960539	      2.37844660	      6.25743147
      0.91233333	     -0.71996088	      0.42651568	     -2.31511746	     -0.33647512	      1.00051546	      0.35155916	     -2.25129538	      4.32705461	     -1.91300191	     -6.37015736	     10.48992669	     -0.43018335	      3.70709346	     29.72675400	      0.11314383	      0.59289233	    -45.41961939	      1.77998853	    -10.16929407	      1.63944458	      0.33729782	      2.41177057	      6.30542548
